<svg width="132" height="35" viewBox="0 0 132 35" fill="none" xmlns="http://www.w3.org/2000/svg">
<path d="M15.3944 6.51779V3.53764H31.0661V6.51779H25.002V26H21.4585V6.51779H15.3944ZM32.9343 26V3.53764H36.4779V12.7153H44.6622V3.53764H48.2057V26H44.6622V15.6955H36.4779V26H32.9343ZM56.4345 16.5109H60.6305L58.5399 9.26072L56.4345 16.5109ZM50.0591 26L56.4642 3.53764H60.3488L66.7539 26H63.3289L61.4756 19.4911H55.5894L53.7361 26H50.0591ZM68.2514 26V3.53764H71.7949V26H68.2514Z" fill="#676565"/>
<path d="M52.837 29.0037C52.7382 28.423 52.6888 27.8361 52.6888 27.2431C52.6888 26.65 52.7351 26.0662 52.8278 25.4917C52.9204 24.9171 53.0564 24.358 53.2355 23.8144C53.4208 23.2646 53.6587 22.7611 53.949 22.3039C54.2456 21.8406 54.5823 21.4359 54.9591 21.09C55.7622 20.3548 56.7599 19.9873 57.9522 19.9873C59.4658 19.9873 60.6612 20.744 61.5384 22.2576C61.9647 22.9927 62.252 23.7495 62.4002 24.5279V24.5372L60.4728 25.0561C60.3739 24.3951 60.2565 23.9132 60.1206 23.6105C59.9847 23.3016 59.8488 23.0453 59.7129 22.8414C59.577 22.6313 59.4287 22.4584 59.2681 22.3225C58.8851 22.0074 58.4496 21.8499 57.9615 21.8499C57.4796 21.8499 57.0657 21.9611 56.7198 22.1835C56.3738 22.3997 56.0896 22.6869 55.8672 23.0453C55.6448 23.3974 55.4595 23.8113 55.3112 24.287C55.0394 25.1642 54.9035 26.1527 54.9035 27.2523C54.9035 30.1682 55.5954 31.9104 56.9792 32.4787C57.2758 32.6023 57.5908 32.664 57.9244 32.664C58.258 32.664 58.5546 32.6208 58.814 32.5343C59.0797 32.4478 59.3021 32.3366 59.4812 32.2007C59.6604 32.0586 59.8179 31.8918 59.9538 31.7003C60.0959 31.5088 60.2071 31.3173 60.2874 31.1258C60.3739 30.9281 60.4419 30.7273 60.4913 30.5234C60.584 30.1651 60.6303 29.8315 60.6303 29.5226L62.6968 29.8099C62.4188 30.996 61.9338 32.0246 61.2419 32.8957C60.3647 33.983 59.2619 34.5266 57.9337 34.5266C56.3028 34.5266 54.99 33.7513 53.9954 32.2007C53.4332 31.3296 53.0471 30.264 52.837 29.0037ZM66.042 25.3063C65.9802 25.6708 65.937 26.0137 65.9123 26.3349C65.8876 26.6562 65.8752 26.9867 65.8752 27.3265C65.8752 27.66 65.8876 27.9906 65.9123 28.318C65.937 28.6454 65.9802 28.9914 66.042 29.3558C66.11 29.7203 66.1934 30.057 66.2922 30.3659C66.3911 30.6748 66.5239 30.9744 66.6907 31.2648C66.8637 31.549 67.0552 31.793 67.2652 31.9968C67.7409 32.4416 68.3402 32.664 69.063 32.664C71.0707 32.664 72.0746 30.8787 72.0746 27.3079C72.0746 24.3982 71.3951 22.6437 70.036 22.0445C69.7394 21.9147 69.4089 21.8499 69.0444 21.8499C68.6861 21.8499 68.3525 21.9147 68.0436 22.0445C67.7409 22.1742 67.4814 22.3472 67.2652 22.5634C67.0552 22.7734 66.8637 23.0298 66.6907 23.3325C66.5239 23.6352 66.3911 23.9472 66.2922 24.2685C66.1934 24.5897 66.11 24.9357 66.042 25.3063ZM63.7532 28.7164C63.6914 28.2469 63.6605 27.7805 63.6605 27.3172C63.6605 26.8539 63.6883 26.3874 63.7439 25.9179C63.7995 25.4484 63.8922 24.9727 64.0219 24.4909C64.1516 24.0028 64.3123 23.5426 64.5038 23.1101C64.6953 22.6777 64.9362 22.2699 65.2266 21.8869C65.5231 21.4977 65.8536 21.1641 66.2181 20.8861C67.0027 20.2869 67.9571 19.9873 69.0815 19.9873C70.6259 19.9873 71.8615 20.6236 72.7881 21.8962C73.7889 23.28 74.2893 25.087 74.2893 27.3172C74.2893 29.5906 73.8075 31.3822 72.8437 32.6918C71.9418 33.915 70.6877 34.5266 69.0815 34.5266C67.5556 34.5266 66.3046 33.912 65.3285 32.6826C64.5007 31.6447 63.9756 30.3227 63.7532 28.7164ZM78.2369 26.3257H80.5814C81.2301 26.3257 81.7706 26.1496 82.2031 25.7975C82.6602 25.4206 82.8888 24.843 82.8888 24.0646C82.8888 22.7611 81.854 22.1093 79.7845 22.1093H78.2369V26.3257ZM76.0222 34.2857V20.2467H80.7389C82.9073 20.2467 84.2788 21.022 84.8533 22.5727C85.0201 23.0236 85.1035 23.4901 85.1035 23.9719C85.1035 24.4538 85.0479 24.8924 84.9367 25.2878C84.8317 25.6832 84.6742 26.0507 84.4641 26.3905C84.0008 27.1319 83.3182 27.5983 82.4162 27.7898L85.0109 34.2857H82.7405L80.3127 28.1975H78.2369V34.2857H76.0222ZM93.7771 28.8647V20.2467H95.9826V34.2857H94.2219L88.5507 23.5179V34.2857H86.3453V20.2467H89.1994L93.7771 28.8647ZM98.2066 34.2857V20.2467H106.241V22.1093H100.421V25.9921H104.471V27.8639H100.421V32.2934H106.593V34.2857H98.2066ZM110.429 26.3257H112.774C113.422 26.3257 113.963 26.1496 114.395 25.7975C114.853 25.4206 115.081 24.843 115.081 24.0646C115.081 22.7611 114.046 22.1093 111.977 22.1093H110.429V26.3257ZM108.215 34.2857V20.2467H112.931C115.1 20.2467 116.471 21.022 117.046 22.5727C117.212 23.0236 117.296 23.4901 117.296 23.9719C117.296 24.4538 117.24 24.8924 117.129 25.2878C117.024 25.6832 116.867 26.0507 116.656 26.3905C116.193 27.1319 115.51 27.5983 114.609 27.7898L117.203 34.2857H114.933L112.505 28.1975H110.429V34.2857H108.215Z" fill="#676565"/>
</svg>
